Coordinates
version=1
nRows=6
nColumns=36
inDegrees=yes

Units are S.I. units (second, meters, Newtons, ...)
If the header above contains a line with 'inDegrees', this indicates whether rotational values are in degrees (yes) or radians (no).

endheader
time	pelvis_tilt	pelvis_list	pelvis_rotation	pelvis_tx	pelvis_ty	pelvis_tz	hip_flexion_r	hip_adduction_r	hip_rotation_r	knee_angle_r	knee_angle_r_beta	ankle_angle_r	subtalar_angle_r	mtp_angle_r	hip_flexion_l	hip_adduction_l	hip_rotation_l	knee_angle_l	knee_angle_l_beta	ankle_angle_l	subtalar_angle_l	mtp_angle_l	lumbar_extension	lumbar_bending	lumbar_rotation	arm_flex_r	arm_add_r	arm_rot_r	elbow_flex_r	pro_sup_r	arm_flex_l	arm_add_l	arm_rot_l	elbow_flex_l	pro_sup_l
      4.41250000	    -32.91382619	      2.55520150	      3.58855830	      0.35354534	      0.67411288	     -0.13625495	     90.84895923	    -12.08645262	      8.73504547	     96.65637583	      1.68697200	     36.11472148	    -11.74999152	     -7.49999987	     89.42931990	     -7.85242930	      3.67806184	     93.71960556	      1.63571569	     26.68927962	    -11.37017917	     -7.49999987	    -26.78752965	     -2.68428204	      0.24385192	     77.28818489	    -29.53879373	     38.18528879	    122.05864649	    102.78443080	     76.50517034	    -25.59806874	     39.80289733	    117.83108311	     97.66055498
      4.41666670	    -32.46052943	      2.77385445	      3.50602613	      0.35362510	      0.67773610	     -0.13645943	     89.92217493	    -12.14751215	      8.88135596	     95.91129958	      1.67396797	     35.83719130	    -11.80928956	     -7.49999987	     88.26182228	     -7.65039238	      3.32300738	     92.89188642	      1.62126927	     26.65330916	    -11.60794701	     -7.49999987	    -26.97146527	     -2.71765490	      0.10807134	     76.53235116	    -29.38057066	     38.29758344	    121.10917109	    101.11035095	     75.88867311	    -25.78407295	     39.89939364	    117.21645781	     96.02274380
      4.42083330	    -31.81156889	      3.12955734	      3.21204563	      0.35738721	      0.68496134	     -0.14047442	     88.60872217	    -12.26229022	      9.13208185	     94.95701046	      1.65731248	     35.45866833	    -11.80249392	     -7.49999987	     86.68222482	     -7.40623088	      2.80665452	     92.09614256	      1.60738092	     26.55325105	    -12.10050748	     -7.49999987	    -27.39183255	     -2.75508404	      0.02975963	     75.73016085	    -29.02388057	     38.34169636	    119.71008397	    101.42721286	     74.72543056	    -25.85784559	     39.66801965	    116.24507269	     96.28576002
      4.42500000	    -31.34993728	      3.43440210	      3.05490878	      0.35745612	      0.68878066	     -0.14026393	     87.49987875	    -12.31058804	      9.44741607	     94.03250287	      1.64117678	     35.21016524	    -11.94050354	     -7.49999987	     85.42804347	     -7.17934778	      2.31983327	     91.33278906	      1.59405788	     26.46575126	    -12.47922327	     -7.49999987	    -27.64354898	     -2.66111705	     -0.22679336	     75.36754576	    -28.46660716	     38.90203415	    118.11596669	    103.41434878	     72.60419258	    -25.78268903	     38.38619300	    115.56647910	     97.66914814
      4.42916670	    -30.72644615	      3.55639660	      2.70631007	      0.35719996	      0.69208786	     -0.13937442	     86.43316722	    -12.01951887	      9.54387069	     93.34511061	      1.62917952	     35.01105375	    -12.31808277	     -7.49999987	     84.32116062	     -7.29208516	      2.12608597	     90.87808935	      1.58612188	     26.42586155	    -12.62330955	     -7.49999987	    -27.99901486	     -2.74091946	     -0.01918874	     74.76767824	    -28.22713154	     38.89609434	    116.49238111	    101.37343869	     71.49137021	    -25.49522923	     38.33753666	    113.93215249	     95.89679384
      4.43333330	    -30.47616476	      3.79499942	      2.88893667	      0.35765135	      0.69581657	     -0.14067442	     85.77907412	    -12.34738102	      9.76519820	     92.78361086	      1.61937950	     34.84862686	    -12.35043944	     -7.49999987	     83.61302021	     -6.79004698	      1.87348328	     90.27130229	      1.57553145	     26.02110280	    -13.28444060	     -7.49999987	    -28.25445726	     -2.56419952	     -0.09819326	     74.27188294	    -28.74038049	     39.16536468	    115.79658487	    103.19384610	     68.65428783	    -24.48496697	     36.10176362	    113.46360342	     97.63040583
